# xmcd
#
# Track frame offsets: 
#        150
#        25861
#        51749
#        72085
#        98703
#        129079
#        146027
#        163290
#        180578
#        213251
#        236231
#        253751
#        279722
#        297480
#
# Disc length: 4316 seconds
#
# Revision: 2
# Processed by: cddbd v1.5.2PL0 Copyright (c) Steve Scherf et al.
# Submitted via: ExactAudioCopy v1.3
#
DISCID=dd10da0e
DTITLE=Various Artist - Italo 80s Disco Hits
DYEAR=2005
DGENRE=Italo Disco
TTITLE0=Albert One - Hopes And Dreams
TTITLE1=Charlie G. - Llama L'Amour (12'' Version)
TTITLE2=Valerie Dore - Lancelot (Album Version)
TTITLE3=Karl Olivas - Follow Me
TTITLE4=The D.Light - Scratch Your Face
TTITLE5=Jimmy and Susy - Come Back (7'' Version)
TTITLE6=Den Harrow - To Meet Me (7'' Vocal)
TTITLE7=Mozzart - Money
TTITLE8=Marx and Spencer - Stay (7'' D-Version)
TTITLE9=Max Coveri - One More Time (12'' Version)
TTITLE10=Cyber People - Void Vision (7'' Slow Version)
TTITLE11=Lee Marrow - Sayonara (Don't Stop) (12'' Short Version)
TTITLE12=G.J. Lunghi - Acapulco Nights (7'' Version)
TTITLE13=Hypnosis - Droid (12'' Version)
EXTD=
EXTT0=
EXTT1=
EXTT2=
EXTT3=
EXTT4=
EXTT5=
EXTT6=
EXTT7=
EXTT8=
EXTT9=
EXTT10=
EXTT11=
EXTT12=
EXTT13=
PLAYORDER=
